# xmcd
#
# Track frame offsets:
#	150
#	11202
#	22970
#	36555
#	51287
#	63352
#	73960
#	89130
#	100537
#	113277
#	129742
#	143430
#	155167
#	165490
#	182057
#	196125
#
# Disc length: 2788 seconds
#
# Revision: 2
# Processed by: cddbd v1.5.1PL2 Copyright (c) Steve Scherf et al.
# Submitted via: dBpowerAMP V4.0
#
DISCID=dc0ae210
DTITLE=Various Artist - 16 TOP COUNTRY HITS - VOLUME 1
DYEAR=1990
DGENRE=Country
TTITLE0=Conway Twitty - Hello Darlin'
TTITLE1=John Conlee - Backside of Thirty
TTITLE2=Loretta Lynn - Coal Miner's Daughter
TTITLE3=Merle Haggard - If We're Not Back In Love By Monday
TTITLE4=Conway Twitty and Loretta Lynn - After The Fire Is Gone
TTITLE5=Barbara Mandrell - Sleeping Single In A Double Bed
TTITLE6=Jeanne Pruett - Satin Sheets
TTITLE7=Donna Fargo - The Happiest Girl In The Whole USA
TTITLE8=Donna Fargo - Funny Face
TTITLE9=Oak Ridge Boys - I'll Be True To You
TTITLE10=Don Williams - I Wouldn't Want To Live If You Didn't Love Me
TTITLE11=Freddy Fender - Before The Next Teardrop Falls
TTITLE12=Billy Crash Craddock - Rub It In
TTITLE13=Cal Smith - Country Bumpkin
TTITLE14=Marty Robbins - Walking Piece Of Heaven
TTITLE15=Bill Anderson and Mary Loi Turner - Sometimes
EXTD=
EXTT0=
EXTT1=
EXTT2=
EXTT3=
EXTT4=
EXTT5=
EXTT6=
EXTT7=
EXTT8=
EXTT9=
EXTT10=
EXTT11=
EXTT12=
EXTT13=
EXTT14=
EXTT15=
PLAYORDER=
